<?xml version="1.0" standalone="no"?>
<!DOCTYPE svg PUBLIC "-//W3C//DTD SVG 20010904//EN"
 "http://www.w3.org/TR/2001/REC-SVG-20010904/DTD/svg10.dtd">
<svg version="1.0" xmlns="http://www.w3.org/2000/svg"
 width="1134.000000pt" height="162.000000pt" viewBox="0 0 1134.000000 162.000000"
 preserveAspectRatio="xMidYMid meet">
<metadata>
Created by potrace 1.10, written by Peter Selinger 2001-2011
</metadata>
<g transform="translate(0.000000,162.000000) scale(0.100000,-0.100000)"
fill="#000000" stroke="none">
<path d="M845 1443 c-286 -53 -474 -232 -535 -510 -77 -348 93 -683 395 -776
62 -19 187 -41 240 -41 54 -1 193 23 230 39 94 41 125 61 125 81 0 19 -33 220
-45 271 -6 27 -41 31 -83 10 -54 -27 -137 -41 -172 -28 -18 6 -47 11 -64 11
-42 0 -134 56 -163 99 -32 47 -46 104 -46 181 1 83 15 134 54 194 34 51 86 90
134 99 17 3 48 10 71 15 28 6 56 5 90 -4 27 -7 59 -13 71 -14 12 0 38 -8 58
-17 19 -9 38 -14 41 -10 7 7 13 35 40 206 15 101 15 105 -3 119 -39 30 -112
55 -213 73 -121 21 -120 21 -225 2z"/>
<path d="M2780 1449 c-14 -6 -61 -15 -105 -19 -44 -4 -102 -14 -130 -21 l-50
-14 0 -510 0 -510 26 -55 c39 -82 74 -112 192 -164 50 -21 222 -22 274 -1 19
8 44 15 54 15 10 0 30 10 44 23 l26 22 -17 130 c-17 134 -25 158 -46 137 -7
-7 -33 -12 -58 -12 -36 0 -52 5 -68 23 -22 23 -22 27 -24 493 l-3 469 -45 2
c-25 1 -56 -3 -70 -8z"/>
<path d="M4495 1418 c-3 -7 -4 -296 -3 -643 l3 -630 189 -3 c104 -1 194 2 198
6 5 5 9 122 8 259 0 216 2 252 15 263 19 16 26 10 61 -55 86 -162 118 -221
127 -233 7 -9 35 -12 95 -10 l84 3 22 40 c13 22 47 85 76 140 29 55 57 106 63
113 27 34 32 1 37 -259 l5 -264 200 0 200 0 0 640 0 640 -195 3 -196 2 -138
-272 c-76 -150 -142 -277 -147 -283 -17 -18 -47 29 -174 280 -70 138 -132 256
-138 263 -7 9 -59 12 -199 12 -142 0 -190 -3 -193 -12z"/>
<path d="M8130 1235 c-45 -74 -90 -139 -100 -145 -10 -5 -41 -10 -67 -10 -27
0 -54 -5 -61 -12 -7 -7 -12 -34 -12 -60 0 -26 -4 -48 -10 -48 -10 0 -13 11
-28 90 l-8 45 -44 -1 c-60 -1 -116 -24 -168 -69 -50 -43 -77 -43 -78 0 0 17
-1 36 -2 43 -2 9 -49 12 -197 12 -194 0 -195 0 -200 -22 -3 -13 -4 -223 -3
-468 l3 -445 200 0 200 0 5 240 c5 253 7 260 57 306 45 43 67 49 165 49 51 0
98 4 104 8 5 4 10 23 10 42 -1 34 0 35 39 38 71 4 69 8 75 -235 5 -199 8 -223
28 -269 35 -77 86 -121 195 -168 56 -24 210 -22 297 5 104 31 104 31 85 185
-16 132 -25 158 -47 136 -7 -7 -33 -12 -58 -12 -36 0 -52 5 -68 23 -21 22 -22
33 -22 170 0 106 3 148 13 154 6 4 53 10 102 13 l90 5 3 100 c4 150 8 145 -91
145 -51 0 -90 5 -100 13 -14 10 -17 34 -19 142 l-3 130 -102 3 -101 3 -82
-136z"/>
<path d="M1705 1083 c-197 -61 -301 -152 -355 -313 -24 -71 -29 -193 -11 -273
35 -154 169 -286 341 -337 60 -18 290 -18 350 0 131 38 257 137 310 240 79
155 61 364 -45 505 -44 58 -140 135 -168 135 -7 0 -17 4 -23 10 -5 5 -43 19
-84 30 -92 24 -241 25 -315 3z m223 -307 c45 -23 72 -70 78 -135 12 -108 -52
-191 -145 -191 -90 0 -151 68 -151 170 0 51 27 120 52 137 50 32 125 40 166
19z"/>
<path d="M3500 1085 c-19 -7 -43 -14 -53 -14 -44 -2 -150 -67 -206 -127 -88
-94 -131 -198 -131 -317 0 -140 55 -275 144 -353 56 -48 159 -104 193 -104 13
0 40 -7 61 -16 31 -12 69 -14 183 -11 139 4 205 14 261 43 14 8 33 14 41 14 8
0 17 6 19 13 4 10 -17 138 -38 235 -5 27 -40 30 -85 6 -22 -11 -63 -16 -142
-17 -102 -2 -115 0 -149 21 -37 23 -52 61 -25 63 76 4 232 20 267 28 25 6 75
10 111 11 97 0 103 8 96 116 -6 97 -30 177 -72 245 -47 75 -98 113 -215 159
-49 19 -216 23 -260 5z m212 -272 c25 -22 23 -30 -13 -49 -27 -14 -72 -24
-164 -36 -12 -2 -21 4 -23 15 -5 24 42 84 70 90 39 9 111 -2 130 -20z"/>
<path d="M6365 1083 c-132 -41 -180 -67 -243 -130 -109 -108 -156 -249 -134
-403 15 -103 50 -176 122 -253 59 -63 137 -110 230 -137 60 -18 290 -18 350
-1 122 37 217 105 285 206 92 139 92 353 0 511 -49 84 -173 169 -295 204 -71
20 -256 22 -315 3z m243 -328 c84 -75 82 -203 -5 -274 -29 -24 -47 -31 -81
-31 -76 0 -125 39 -148 117 -14 48 -14 58 0 106 23 78 71 113 158 116 30 1 46
-6 76 -34z"/>
<path d="M9036 1079 c-37 -10 -73 -22 -80 -27 -6 -5 -23 -12 -39 -16 -42 -10
-160 -127 -194 -193 -43 -82 -56 -149 -51 -257 6 -105 30 -173 90 -253 41 -54
137 -133 161 -133 8 0 20 -7 27 -15 7 -8 22 -15 34 -15 13 0 43 -7 68 -16 58
-19 246 -15 328 8 215 60 350 239 350 464 0 278 -223 475 -535 473 -54 -1
-117 -8 -159 -20z m244 -311 c48 -33 70 -81 70 -153 0 -100 -59 -165 -150
-165 -115 0 -185 138 -130 258 33 74 143 105 210 60z"/>
<path d="M10412 1080 c-29 -11 -76 -36 -103 -56 -27 -20 -56 -34 -64 -31 -7 3
-15 23 -17 44 l-3 38 -195 0 -195 0 0 -465 0 -465 180 -3 c99 -1 190 0 203 3
l22 5 0 247 c0 230 1 250 21 290 29 61 65 83 131 83 55 0 75 -12 104 -60 5 -8
11 -139 14 -290 l5 -275 200 0 200 0 0 295 c0 320 -5 357 -56 464 -34 70 -49
88 -109 130 -68 47 -107 59 -200 62 -64 3 -98 -1 -138 -16z"/>
</g>
</svg>
